<svg id="Logotype" xmlns="http://www.w3.org/2000/svg" viewBox="0 0 1080 1052"><defs><style>.cls-1{font-size:23.23px;font-family:MochiyPopOne-Regular, Mochiy Pop One;letter-spacing:0.14em;}.cls-2{letter-spacing:0.18em;}</style></defs><text class="cls-1" transform="translate(194.8 941.91)">黒<tspan class="cls-2" x="26.6" y="0">音</tspan></text><path d="M362.61,225.1a5.15,5.15,0,0,1-5.47,5.09h-7.45V212.63h6.93c3,0,5.34,2,5.34,4.94a4.35,4.35,0,0,1-1.66,3.51A4.46,4.46,0,0,1,362.61,225.1Zm-9.46-9.24v3.87h3.47a1.94,1.94,0,0,0,0-3.87Zm6,9a2,2,0,0,0-2-2.06h-4V227h4A2,2,0,0,0,359.18,224.87Z"/><path d="M381.31,226.88v3.31H371.15V212.63h3.46v14.25Z"/><path d="M400.05,227h-7L392,230.19h-3.74l6.15-17.56h4.29l6.17,17.56h-3.76ZM399,223.79l-2.41-7.17-2.4,7.17Z"/><path d="M411,221.41a8.9,8.9,0,0,1,9.13-9.14,8.75,8.75,0,0,1,7.55,4.15l-3,1.73a5.07,5.07,0,0,0-4.57-2.51,5.76,5.76,0,0,0,0,11.52,5.08,5.08,0,0,0,4.57-2.49l3,1.73a8.68,8.68,0,0,1-7.55,4.14A8.91,8.91,0,0,1,411,221.41Z"/><path d="M445.61,230.19,439.34,222v8.23h-3.46V212.63h3.46v7.75l6-7.75h4l-6.5,8.53,6.75,9Z"/><path d="M455.61,226.2l3-1.73a4,4,0,0,0,4,2.69c2.09,0,2.82-.88,2.82-1.86,0-1.31-1.18-1.81-3.79-2.56s-5.3-1.91-5.3-5.25,2.76-5.22,5.77-5.22a6.68,6.68,0,0,1,6.28,3.94l-2.91,1.69a3.46,3.46,0,0,0-3.37-2.26c-1.45,0-2.31.75-2.31,1.75s.68,1.66,3.34,2.46,5.75,1.81,5.75,5.4c0,3.29-2.64,5.29-6.38,5.29C458.93,230.54,456.57,228.81,455.61,226.2Z"/><path d="M476.2,221.41a9.12,9.12,0,1,1,9.11,9.13A9,9,0,0,1,476.2,221.41Zm14.78,0a5.67,5.67,0,1,0-5.67,5.75A5.56,5.56,0,0,0,491,221.41Z"/><path d="M502.79,224.45V212.63h3.44v11.54c0,1.71.91,3,3.27,3s3.26-1.28,3.26-3V212.63h3.46v11.82c0,3.78-2.86,6.09-6.72,6.09S502.79,228.23,502.79,224.45Z"/><path d="M539.18,212.63v17.56h-2.63L529,219.45v10.74h-3.47V212.63h2.64l7.53,10.71V212.63Z"/><path d="M564.05,221.41a8.46,8.46,0,0,1-8.46,8.78h-7V212.63h7A8.45,8.45,0,0,1,564.05,221.41Zm-3.31,0c0-3.24-2.11-5.47-5.15-5.47h-3.51v10.94h3.51C558.63,226.88,560.74,224.65,560.74,221.41Z"/><path d="M204.05,234.9a18.93,18.93,0,0,0,3.62-4.48,29.11,29.11,0,0,0,2.71-5.72l8.72,2.09a35.67,35.67,0,0,1-2.71,6.39,23.55,23.55,0,0,1-3.8,5.34ZM260.73,224H204.6v-7.37h23.34v-2h-18.3v-6.87h18.3v-1.91H211.3V181.9h43.17v23.95H236.78v1.91h19.34v6.87H236.78v2h24Zm-40.9-33.28h8.11v-2.21h-8.11Zm8.11,8.47V197h-8.11v2.27Zm1.9,27.45c.33,1.64.6,3.43.83,5.37a45.48,45.48,0,0,1,.34,5l-8.72,1q.06-2-.09-5c-.11-2-.28-3.83-.53-5.55Zm12-.62a54.67,54.67,0,0,1,1.84,5.16,36.88,36.88,0,0,1,1.17,4.85L236,238a45.62,45.62,0,0,0-.95-4.91q-.71-3-1.56-5.41Zm3.62-37.51h-8.72v2.21h8.72Zm0,8.41h-8.72v2.27h8.72Zm8.41,27.57c.9,1.07,1.83,2.25,2.8,3.56s1.86,2.6,2.7,3.87a26.87,26.87,0,0,1,2,3.5l-9.08,3.13a32.15,32.15,0,0,0-1.75-3.44q-1.14-2-2.49-4t-2.64-3.81Z"/><path d="M328.72,198.48v7.93H273.15v-7.93h12.9a25.58,25.58,0,0,0-2.09-5.83l1-.18h-8.41v-7.86H296V180h9.45v4.61H326v7.86h-7.86l1.23.24c-.53,1.07-1,2.09-1.47,3.07s-.88,1.89-1.29,2.7Zm-47,10.69h39.73v29.11H312v-1.85H290.65v1.85h-9Zm9,7.31v2.94H312v-2.94ZM312,229.13v-3.08H290.65v3.08Zm-18.3-36.66a22.07,22.07,0,0,1,2.09,5.89l-.55.12h12.4l-.55-.12c.33-.82.65-1.76,1-2.82s.63-2.09.92-3.07Z"/><path d="M538.71,485.08A40.91,40.91,0,0,0,500,512.8l2.67.91a38.11,38.11,0,0,1,72.15,0l2.67-.91A40.9,40.9,0,0,0,538.71,485.08Z"/><path d="M538.71,493.55a32.29,32.29,0,0,0-31,22.91l2.7.83a29.65,29.65,0,0,1,56.67,0l2.7-.83A32.29,32.29,0,0,0,538.71,493.55Z"/><path d="M538.71,503.43a22.59,22.59,0,0,0-22.18,18.34,62.26,62.26,0,0,1,22.19,32.54h0a62.29,62.29,0,0,1,22.18-32.52h0A22.58,22.58,0,0,0,538.71,503.43Z"/><path d="M659.28,372.14A63.69,63.69,0,0,0,599.52,327a63.47,63.47,0,0,0-121.6,0,63.74,63.74,0,0,0-59.76,45.2,63.73,63.73,0,0,0-60.08,46.19l2.72.77A60.66,60.66,0,0,1,477,417.38a63,63,0,0,0-19.59,3.75,40.91,40.91,0,0,0-77,1.27l2.67.91a38.09,38.09,0,0,1,71.7-1.16c-1.75.72-3.47,1.5-5.14,2.38a32.45,32.45,0,0,0-61.52,1.53l2.7.83a29.63,29.63,0,0,1,56.33-.95,63.65,63.65,0,0,0-6.15,4,22.57,22.57,0,0,0-44,1.41h0a62.24,62.24,0,0,1,21.45,30.29c-.2.62-.44,1.23-.62,1.87l1.35.38h0l1.36.39a60.66,60.66,0,0,1,116.24-1.72,63,63,0,0,0-19.59,3.75,40.91,40.91,0,0,0-77,1.27l2.67.91a38.09,38.09,0,0,1,71.7-1.16c-1.75.72-3.46,1.5-5.14,2.38a32.45,32.45,0,0,0-61.52,1.53l2.7.83a29.63,29.63,0,0,1,56.33-.95,63.65,63.65,0,0,0-6.15,4,22.57,22.57,0,0,0-44,1.41,62.18,62.18,0,0,1,21.45,30.29c-.2.62-.44,1.23-.62,1.87l1.35.38h0l1.36.39a60.69,60.69,0,0,1,116.8,0l1.36-.39h0l1.36-.38c-.18-.64-.42-1.25-.62-1.88a62.3,62.3,0,0,1,21.44-30.26h0a22.57,22.57,0,0,0-44-1.45,64.21,64.21,0,0,0-6.15-4,29.63,29.63,0,0,1,56.33,1l2.7-.83A32.45,32.45,0,0,0,568,469.72c-1.67-.87-3.39-1.66-5.14-2.38a38.09,38.09,0,0,1,71.7,1.18l2.67-.91a40.91,40.91,0,0,0-77-1.29,63.21,63.21,0,0,0-19.58-3.74,60.66,60.66,0,0,1,116.24,1.72l2.72-.77c-.18-.64-.42-1.25-.62-1.88a62.3,62.3,0,0,1,21.44-30.26h0a22.57,22.57,0,0,0-44-1.45,64.21,64.21,0,0,0-6.15-4,29.63,29.63,0,0,1,56.33,1l2.7-.83a32.45,32.45,0,0,0-61.52-1.55c-1.67-.87-3.39-1.66-5.14-2.38a38.09,38.09,0,0,1,71.7,1.18l2.67-.91a40.91,40.91,0,0,0-77-1.29,63.21,63.21,0,0,0-19.58-3.74,60.66,60.66,0,0,1,116.24,1.72l2.72-.77A63.72,63.72,0,0,0,659.28,372.14Zm-3,0a63,63,0,0,0-19.59,3.75,40.89,40.89,0,0,0-76.51,0,63.21,63.21,0,0,0-19.58-3.74,60.63,60.63,0,0,1,115.68,0ZM538.71,413a22.57,22.57,0,0,0-21.84,16.91,64.21,64.21,0,0,0-6.15-4,29.61,29.61,0,0,1,56,0,63.65,63.65,0,0,0-6.15,4A22.57,22.57,0,0,0,538.71,413Zm0-9.88a32.24,32.24,0,0,0-30.48,21.37c-1.67-.87-3.39-1.66-5.14-2.38a38.07,38.07,0,0,1,71.25,0c-1.75.72-3.46,1.5-5.14,2.38A32.24,32.24,0,0,0,538.71,403.15Zm0-8.47a40.9,40.9,0,0,0-38.25,26.44,63.21,63.21,0,0,0-19.58-3.74,60.63,60.63,0,0,1,115.68,0A63,63,0,0,0,577,421.13,40.9,40.9,0,0,0,538.71,394.68Zm-29.27-15.35a32.43,32.43,0,0,0-61,0q-2.52-1.31-5.14-2.38a38.07,38.07,0,0,1,71.25,0C512.83,377.67,511.11,378.45,509.44,379.33ZM479,360.77a29.45,29.45,0,0,1,28,20,65.49,65.49,0,0,0-6.15,4,22.56,22.56,0,0,0-43.69,0,64.21,64.21,0,0,0-6.15-4A29.44,29.44,0,0,1,479,360.77Zm90.25-26.64a32.43,32.43,0,0,0-61,0c-1.67-.87-3.39-1.66-5.14-2.38a38.07,38.07,0,0,1,71.25,0C572.59,332.47,570.88,333.25,569.2,334.13Zm-30.49-18.56a29.45,29.45,0,0,1,28,20,65.49,65.49,0,0,0-6.15,4,22.56,22.56,0,0,0-43.69,0,64.21,64.21,0,0,0-6.15-4A29.44,29.44,0,0,1,538.71,315.57Zm59.76,52.26a22.56,22.56,0,0,0-21.84,16.91,64.21,64.21,0,0,0-6.15-4,29.61,29.61,0,0,1,56,0,65.49,65.49,0,0,0-6.15,4A22.57,22.57,0,0,0,598.47,367.83Zm0-9.88A32.24,32.24,0,0,0,568,379.32c-1.67-.87-3.39-1.66-5.14-2.38a38.07,38.07,0,0,1,71.25,0c-1.75.73-3.46,1.51-5.13,2.39A32.26,32.26,0,0,0,598.47,358Zm-59.76-73.43A60.88,60.88,0,0,1,596.56,327,63,63,0,0,0,577,330.73a40.89,40.89,0,0,0-76.51,0A63.21,63.21,0,0,0,480.88,327,60.91,60.91,0,0,1,538.71,284.52ZM479,329.72a60.89,60.89,0,0,1,57.85,42.46,63,63,0,0,0-19.59,3.75,40.89,40.89,0,0,0-76.51,0,63.21,63.21,0,0,0-19.58-3.74A60.9,60.9,0,0,1,479,329.72Z"/><path d="M719.35,621.39a40.91,40.91,0,0,0-38.74,27.72l2.67.91a38.12,38.12,0,0,1,72.15,0l2.67-.9A40.9,40.9,0,0,0,719.35,621.39Z"/><path d="M719.35,629.85a32.29,32.29,0,0,0-31,22.92l2.7.83a29.65,29.65,0,0,1,56.67,0l2.7-.82A32.3,32.3,0,0,0,719.35,629.85Z"/><path d="M719.35,639.73a22.58,22.58,0,0,0-22.18,18.35,62.22,62.22,0,0,1,22.19,32.54h0a62.29,62.29,0,0,1,22.18-32.52h0A22.59,22.59,0,0,0,719.35,639.73Z"/><path d="M839.92,508.45a63.7,63.7,0,0,0-59.76-45.2,63.48,63.48,0,0,0-121.6,0,63.73,63.73,0,0,0-59.76,45.2,63.73,63.73,0,0,0-60.08,46.19l2.72.76a60.66,60.66,0,0,1,116.24-1.71,63,63,0,0,0-19.59,3.74,40.92,40.92,0,0,0-77,1.28l2.67.91a38.1,38.1,0,0,1,71.7-1.17c-1.75.73-3.47,1.51-5.14,2.38a32.45,32.45,0,0,0-61.52,1.54l2.7.83a29.63,29.63,0,0,1,56.33-1,67.64,67.64,0,0,0-6.15,4,22.57,22.57,0,0,0-44,1.42h0A62.26,62.26,0,0,1,599.1,598c-.2.63-.44,1.24-.62,1.87l1.35.39h0l1.36.38a60.66,60.66,0,0,1,116.24-1.71,63,63,0,0,0-19.59,3.74,40.92,40.92,0,0,0-77,1.28l2.67.91a38.1,38.1,0,0,1,71.7-1.17c-1.75.73-3.46,1.51-5.14,2.38a32.45,32.45,0,0,0-61.52,1.54l2.7.83a29.63,29.63,0,0,1,56.33-1,65.58,65.58,0,0,0-6.15,4,22.57,22.57,0,0,0-44,1.42,62.26,62.26,0,0,1,21.45,30.28c-.2.63-.44,1.24-.62,1.87l1.35.39h0l1.36.38a60.69,60.69,0,0,1,116.8,0l1.36-.38h0l1.36-.38c-.18-.64-.42-1.25-.62-1.88A62.3,62.3,0,0,1,801.3,612.9h0a22.57,22.57,0,0,0-44-1.45,62.44,62.44,0,0,0-6.15-4,29.63,29.63,0,0,1,56.33,1l2.7-.82A32.45,32.45,0,0,0,748.63,606c-1.67-.87-3.39-1.65-5.14-2.37a38.1,38.1,0,0,1,71.7,1.17l2.67-.9a40.91,40.91,0,0,0-77-1.29,62.92,62.92,0,0,0-19.58-3.74,60.66,60.66,0,0,1,116.24,1.71l2.72-.76c-.18-.64-.42-1.25-.62-1.88a62.3,62.3,0,0,1,21.44-30.26h0a22.57,22.57,0,0,0-44-1.45,62.44,62.44,0,0,0-6.15-4,29.63,29.63,0,0,1,56.33,1l2.7-.82a32.45,32.45,0,0,0-61.52-1.56c-1.67-.87-3.39-1.65-5.14-2.37a38.09,38.09,0,0,1,71.7,1.18l2.67-.91a40.91,40.91,0,0,0-77-1.29A62.92,62.92,0,0,0,781,553.69a60.66,60.66,0,0,1,116.24,1.71l2.72-.76A63.69,63.69,0,0,0,839.92,508.45Zm-3,0a63,63,0,0,0-19.59,3.74,40.89,40.89,0,0,0-76.51,0,62.92,62.92,0,0,0-19.58-3.74,60.63,60.63,0,0,1,115.68,0ZM719.35,549.33a22.57,22.57,0,0,0-21.84,16.92,62.44,62.44,0,0,0-6.15-4,29.61,29.61,0,0,1,56,0,65.58,65.58,0,0,0-6.15,4A22.58,22.58,0,0,0,719.35,549.33Zm0-9.88a32.24,32.24,0,0,0-30.48,21.37c-1.68-.87-3.39-1.65-5.14-2.37a38.07,38.07,0,0,1,71.25,0c-1.75.73-3.46,1.51-5.14,2.38A32.26,32.26,0,0,0,719.35,539.45Zm0-8.46a40.89,40.89,0,0,0-38.25,26.44,62.92,62.92,0,0,0-19.58-3.74,60.63,60.63,0,0,1,115.68,0,63,63,0,0,0-19.59,3.74A40.9,40.9,0,0,0,719.35,531Zm-29.27-15.36a32.43,32.43,0,0,0-61,0c-1.68-.87-3.39-1.65-5.14-2.38a38.08,38.08,0,0,1,71.25,0C693.47,514,691.75,514.76,690.08,515.63Zm-30.49-18.55a29.44,29.44,0,0,1,28,20,65.58,65.58,0,0,0-6.15,4,22.56,22.56,0,0,0-43.69,0,63.65,63.65,0,0,0-6.15-4A29.45,29.45,0,0,1,659.59,497.08Zm90.25-26.65a32.43,32.43,0,0,0-61,0c-1.68-.87-3.39-1.65-5.14-2.38a38.08,38.08,0,0,1,71.25,0Q752.36,469.13,749.84,470.43Zm-30.49-18.55a29.44,29.44,0,0,1,28,20,65.58,65.58,0,0,0-6.15,4,22.56,22.56,0,0,0-43.69,0,62.44,62.44,0,0,0-6.15-4A29.45,29.45,0,0,1,719.35,451.88Zm59.76,52.25a22.57,22.57,0,0,0-21.84,16.92,62.44,62.44,0,0,0-6.15-4,29.61,29.61,0,0,1,56,0,65.58,65.58,0,0,0-6.15,4A22.58,22.58,0,0,0,779.11,504.13Zm0-9.88a32.24,32.24,0,0,0-30.48,21.37c-1.67-.87-3.39-1.65-5.14-2.38a38.08,38.08,0,0,1,71.25,0q-2.62,1.08-5.13,2.38A32.26,32.26,0,0,0,779.11,494.25Zm-59.76-73.42a60.87,60.87,0,0,1,57.85,42.46A63,63,0,0,0,757.61,467a40.89,40.89,0,0,0-76.51,0,62.92,62.92,0,0,0-19.58-3.74A60.9,60.9,0,0,1,719.35,420.83ZM659.59,466a60.87,60.87,0,0,1,57.85,42.46,63,63,0,0,0-19.59,3.74,40.89,40.89,0,0,0-76.51,0,62.92,62.92,0,0,0-19.58-3.74A60.9,60.9,0,0,1,659.59,466Z"/><path d="M360.63,620.31A40.91,40.91,0,0,0,321.89,648l2.67.91a38.12,38.12,0,0,1,72.15,0l2.67-.9A40.9,40.9,0,0,0,360.63,620.31Z"/><path d="M360.63,628.77a32.29,32.29,0,0,0-31,22.92l2.7.83a29.65,29.65,0,0,1,56.67,0l2.7-.82A32.3,32.3,0,0,0,360.63,628.77Z"/><path d="M360.63,638.65A22.58,22.58,0,0,0,338.45,657a62.22,62.22,0,0,1,22.19,32.54h0A62.29,62.29,0,0,1,382.82,657h0A22.59,22.59,0,0,0,360.63,638.65Z"/><path d="M481.2,507.37a63.7,63.7,0,0,0-59.76-45.2,63.48,63.48,0,0,0-121.6,0,63.73,63.73,0,0,0-59.76,45.2A63.73,63.73,0,0,0,180,553.56l2.71.76A60.67,60.67,0,0,1,299,552.61a63,63,0,0,0-19.59,3.74,40.92,40.92,0,0,0-77,1.28l2.68.91a38.1,38.1,0,0,1,71.7-1.17c-1.75.73-3.47,1.51-5.14,2.38a32.45,32.45,0,0,0-61.52,1.54l2.7.83a29.63,29.63,0,0,1,56.33-1,67.64,67.64,0,0,0-6.15,4,22.57,22.57,0,0,0-44,1.42h0a62.26,62.26,0,0,1,21.45,30.28c-.2.63-.44,1.24-.62,1.87l1.35.39h0l1.36.38a60.66,60.66,0,0,1,116.24-1.71,63,63,0,0,0-19.59,3.74,40.92,40.92,0,0,0-77,1.28l2.67.91a38.1,38.1,0,0,1,71.7-1.17c-1.75.73-3.47,1.51-5.14,2.38a32.45,32.45,0,0,0-61.52,1.54l2.7.83a29.63,29.63,0,0,1,56.33-1,65.58,65.58,0,0,0-6.15,4,22.57,22.57,0,0,0-44,1.42,62.26,62.26,0,0,1,21.45,30.28c-.2.63-.44,1.24-.62,1.87l1.35.39h0l1.36.38a60.69,60.69,0,0,1,116.8,0l1.36-.38h0l1.36-.38c-.18-.64-.42-1.25-.62-1.88a62.3,62.3,0,0,1,21.44-30.26h0a22.57,22.57,0,0,0-44-1.45,62.44,62.44,0,0,0-6.15-4,29.63,29.63,0,0,1,56.33,1l2.7-.82a32.45,32.45,0,0,0-61.52-1.56c-1.67-.87-3.39-1.65-5.14-2.37a38.1,38.1,0,0,1,71.7,1.17l2.67-.9a40.91,40.91,0,0,0-77-1.29,62.92,62.92,0,0,0-19.58-3.74,60.66,60.66,0,0,1,116.24,1.71l2.72-.76c-.18-.64-.42-1.25-.62-1.88a62.3,62.3,0,0,1,21.44-30.26h0a22.57,22.57,0,0,0-44-1.45,62.44,62.44,0,0,0-6.15-4,29.63,29.63,0,0,1,56.33,1l2.7-.82a32.45,32.45,0,0,0-61.52-1.56c-1.67-.87-3.39-1.65-5.14-2.37a38.09,38.09,0,0,1,71.7,1.18l2.67-.91a40.91,40.91,0,0,0-77-1.29,62.92,62.92,0,0,0-19.58-3.74,60.66,60.66,0,0,1,116.24,1.71l2.72-.76A63.69,63.69,0,0,0,481.2,507.37Zm-3,0a63,63,0,0,0-19.59,3.74,40.89,40.89,0,0,0-76.51,0,62.92,62.92,0,0,0-19.58-3.74,60.63,60.63,0,0,1,115.68,0ZM360.63,548.25a22.57,22.57,0,0,0-21.84,16.92,63.65,63.65,0,0,0-6.15-4,29.61,29.61,0,0,1,56,0,65.58,65.58,0,0,0-6.15,4A22.58,22.58,0,0,0,360.63,548.25Zm0-9.88a32.24,32.24,0,0,0-30.48,21.37c-1.68-.87-3.39-1.65-5.14-2.37a38.07,38.07,0,0,1,71.25,0c-1.75.73-3.46,1.51-5.14,2.38A32.26,32.26,0,0,0,360.63,538.37Zm0-8.46a40.89,40.89,0,0,0-38.25,26.44,62.92,62.92,0,0,0-19.58-3.74,60.63,60.63,0,0,1,115.68,0,63,63,0,0,0-19.59,3.74A40.9,40.9,0,0,0,360.63,529.91Zm-29.27-15.36a32.43,32.43,0,0,0-61,0c-1.68-.87-3.39-1.65-5.14-2.38a38.08,38.08,0,0,1,71.25,0C334.75,512.89,333,513.68,331.36,514.55ZM300.87,496a29.44,29.44,0,0,1,28,20,65.58,65.58,0,0,0-6.15,4A22.56,22.56,0,0,0,279,520a63.65,63.65,0,0,0-6.15-4A29.45,29.45,0,0,1,300.87,496Zm90.25-26.65a32.43,32.43,0,0,0-61,0c-1.68-.87-3.39-1.65-5.14-2.38a38.08,38.08,0,0,1,71.25,0Q393.64,468.05,391.12,469.35ZM360.63,450.8a29.44,29.44,0,0,1,28,20,65.58,65.58,0,0,0-6.15,4,22.56,22.56,0,0,0-43.69,0,62.44,62.44,0,0,0-6.15-4A29.45,29.45,0,0,1,360.63,450.8Zm59.76,52.25A22.57,22.57,0,0,0,398.55,520a62.44,62.44,0,0,0-6.15-4,29.61,29.61,0,0,1,56,0,65.58,65.58,0,0,0-6.15,4A22.58,22.58,0,0,0,420.39,503.05Zm0-9.88a32.24,32.24,0,0,0-30.48,21.37c-1.67-.87-3.39-1.65-5.14-2.38a38.08,38.08,0,0,1,71.25,0q-2.62,1.08-5.13,2.38A32.26,32.26,0,0,0,420.39,493.17Zm-59.76-73.42a60.87,60.87,0,0,1,57.85,42.46A63,63,0,0,0,398.89,466a40.89,40.89,0,0,0-76.51,0,62.92,62.92,0,0,0-19.58-3.74A60.9,60.9,0,0,1,360.63,419.75ZM300.87,465a60.87,60.87,0,0,1,57.85,42.46,63,63,0,0,0-19.59,3.74,40.89,40.89,0,0,0-76.51,0A62.92,62.92,0,0,0,243,507.41,60.9,60.9,0,0,1,300.87,465Z"/><path d="M541.27,756.61a40.9,40.9,0,0,0-38.74,27.73l2.67.91a38.11,38.11,0,0,1,72.15,0l2.67-.91A40.91,40.91,0,0,0,541.27,756.61Z"/><path d="M541.27,765.08a32.29,32.29,0,0,0-31,22.91l2.7.83a29.65,29.65,0,0,1,56.67,0l2.7-.83A32.29,32.29,0,0,0,541.27,765.08Z"/><path d="M541.27,775a22.58,22.58,0,0,0-22.18,18.35,62.11,62.11,0,0,1,22.18,32.54h0a62.27,62.27,0,0,1,22.18-32.53h0A22.59,22.59,0,0,0,541.27,775Z"/><path d="M661.84,643.68a63.69,63.69,0,0,0-59.76-45.2,63.47,63.47,0,0,0-121.6,0,63.71,63.71,0,0,0-59.76,45.2,63.71,63.71,0,0,0-60.08,46.18l2.71.77a60.67,60.67,0,0,1,116.25-1.72A63,63,0,0,0,460,692.66a40.92,40.92,0,0,0-77,1.28l2.68.91a38.09,38.09,0,0,1,71.7-1.17c-1.75.72-3.47,1.51-5.14,2.38a32.45,32.45,0,0,0-61.52,1.53l2.7.83a29.63,29.63,0,0,1,56.33-.95,62.44,62.44,0,0,0-6.15,4,22.57,22.57,0,0,0-44,1.42h0A62.26,62.26,0,0,1,421,733.19c-.2.63-.44,1.23-.62,1.87l1.35.38h0l1.36.38a60.66,60.66,0,0,1,116.24-1.72,63,63,0,0,0-19.59,3.75,40.91,40.91,0,0,0-77,1.28l2.67.91a38.1,38.1,0,0,1,71.7-1.17c-1.75.72-3.47,1.51-5.14,2.38a32.45,32.45,0,0,0-61.52,1.53l2.7.83a29.63,29.63,0,0,1,56.33-1,63.65,63.65,0,0,0-6.15,4,22.57,22.57,0,0,0-44,1.42,62.26,62.26,0,0,1,21.45,30.28c-.2.63-.44,1.23-.62,1.87l1.35.38h0l1.36.38a60.69,60.69,0,0,1,116.8,0l1.36-.38h0l1.36-.39c-.18-.64-.42-1.25-.62-1.88a62.34,62.34,0,0,1,21.44-30.26h0a22.57,22.57,0,0,0-44-1.45,64.21,64.21,0,0,0-6.15-4,29.63,29.63,0,0,1,56.33,1l2.7-.83a32.45,32.45,0,0,0-61.52-1.55c-1.67-.87-3.39-1.66-5.14-2.38a38.1,38.1,0,0,1,71.7,1.18l2.67-.91a40.91,40.91,0,0,0-77-1.29,63.21,63.21,0,0,0-19.58-3.74,60.66,60.66,0,0,1,116.24,1.72l2.72-.77c-.18-.64-.42-1.25-.62-1.88A62.34,62.34,0,0,1,683,702.92h0a22.57,22.57,0,0,0-44-1.45,64.21,64.21,0,0,0-6.15-4,29.63,29.63,0,0,1,56.33,1l2.7-.83a32.45,32.45,0,0,0-61.52-1.55c-1.67-.87-3.39-1.66-5.14-2.38a38.09,38.09,0,0,1,71.7,1.18l2.67-.91a40.91,40.91,0,0,0-77-1.29A63.21,63.21,0,0,0,603,688.91a60.66,60.66,0,0,1,116.24,1.72l2.72-.77A63.7,63.7,0,0,0,661.84,643.68Zm-3,0a63,63,0,0,0-19.59,3.75,40.89,40.89,0,0,0-76.51,0,63.21,63.21,0,0,0-19.58-3.74,60.63,60.63,0,0,1,115.68,0ZM541.27,684.56a22.57,22.57,0,0,0-21.84,16.91,65.49,65.49,0,0,0-6.15-4,29.61,29.61,0,0,1,56,0,63.65,63.65,0,0,0-6.15,4A22.57,22.57,0,0,0,541.27,684.56Zm0-9.88a32.24,32.24,0,0,0-30.48,21.37q-2.52-1.31-5.14-2.38a38.07,38.07,0,0,1,71.25,0q-2.62,1.08-5.14,2.38A32.24,32.24,0,0,0,541.27,674.68Zm0-8.47A40.9,40.9,0,0,0,503,692.65a63.21,63.21,0,0,0-19.58-3.74,60.63,60.63,0,0,1,115.68,0,63,63,0,0,0-19.59,3.75A40.9,40.9,0,0,0,541.27,666.21ZM512,650.86a32.43,32.43,0,0,0-61,0q-2.5-1.3-5.13-2.38a38.07,38.07,0,0,1,71.25,0C515.39,649.2,513.67,650,512,650.86ZM481.51,632.3a29.45,29.45,0,0,1,28,20,63.65,63.65,0,0,0-6.15,4,22.56,22.56,0,0,0-43.69,0,65.49,65.49,0,0,0-6.15-4A29.44,29.44,0,0,1,481.51,632.3Zm90.25-26.64a32.43,32.43,0,0,0-61,0q-2.52-1.3-5.14-2.38a38.07,38.07,0,0,1,71.25,0C575.15,604,573.43,604.79,571.76,605.66ZM541.27,587.1a29.45,29.45,0,0,1,28,20,63.65,63.65,0,0,0-6.15,4,22.56,22.56,0,0,0-43.69,0,64.21,64.21,0,0,0-6.15-4A29.44,29.44,0,0,1,541.27,587.1ZM601,639.36a22.57,22.57,0,0,0-21.84,16.91,64.21,64.21,0,0,0-6.15-4,29.61,29.61,0,0,1,56,0,63.65,63.65,0,0,0-6.15,4A22.57,22.57,0,0,0,601,639.36Zm0-9.88a32.24,32.24,0,0,0-30.48,21.37c-1.67-.87-3.39-1.66-5.14-2.38a38.07,38.07,0,0,1,71.25,0q-2.62,1.08-5.13,2.38A32.26,32.26,0,0,0,601,629.48Zm-59.76-73.42a60.88,60.88,0,0,1,57.85,42.45,63,63,0,0,0-19.59,3.75,40.89,40.89,0,0,0-76.51,0,63.21,63.21,0,0,0-19.58-3.74A60.9,60.9,0,0,1,541.27,556.06Zm-59.76,45.2a60.88,60.88,0,0,1,57.85,42.45,63,63,0,0,0-19.59,3.75,40.89,40.89,0,0,0-76.51,0,63.21,63.21,0,0,0-19.58-3.74A60.89,60.89,0,0,1,481.51,601.26Z"/><path d="M128.7,952.17a11,11,0,0,0-10.45,7.47l.72.25a10.28,10.28,0,0,1,19.46,0l.72-.25A11,11,0,0,0,128.7,952.17Z"/><path d="M128.7,954.45a8.71,8.71,0,0,0-8.37,6.18l.73.22a8,8,0,0,1,15.28,0l.73-.22A8.71,8.71,0,0,0,128.7,954.45Z"/><path d="M128.7,957.11a6.09,6.09,0,0,0-6,4.95,16.76,16.76,0,0,1,6,8.77h0a16.84,16.84,0,0,1,6-8.77h0A6.1,6.1,0,0,0,128.7,957.11Z"/><path d="M161.21,921.72a17.19,17.19,0,0,0-16.12-12.19,17.11,17.11,0,0,0-32.78,0A17.17,17.17,0,0,0,96.2,921.72,17.18,17.18,0,0,0,80,934.17l.73.21a16.36,16.36,0,0,1,31.34-.47,17.29,17.29,0,0,0-5.28,1,11,11,0,0,0-20.76.35l.72.24a10.27,10.27,0,0,1,19.33-.31c-.47.19-.93.41-1.38.64a8.75,8.75,0,0,0-16.59.41l.73.23a8,8,0,0,1,15.18-.26,18,18,0,0,0-1.65,1.08,6.09,6.09,0,0,0-11.87.39h0a16.8,16.8,0,0,1,5.78,8.16c-.06.17-.12.33-.17.51l.37.1h0l.36.1a16.35,16.35,0,0,1,31.34-.46,17,17,0,0,0-5.28,1,11,11,0,0,0-20.76.35l.72.24a10.27,10.27,0,0,1,19.33-.31,14.35,14.35,0,0,0-1.38.64,8.75,8.75,0,0,0-16.59.41l.73.22a8,8,0,0,1,15.19-.25,18.14,18.14,0,0,0-1.66,1.08,6.09,6.09,0,0,0-11.87.38,16.8,16.8,0,0,1,5.78,8.17c0,.17-.12.33-.17.5l.37.11h0l.37.1a16.36,16.36,0,0,1,31.49,0l.36-.1h0l.37-.11c-.05-.17-.11-.33-.17-.5a16.8,16.8,0,0,1,5.78-8.16h0a6.09,6.09,0,0,0-11.87-.39,18.09,18.09,0,0,0-1.65-1.09,8,8,0,0,1,15.18.27l.73-.23a8.75,8.75,0,0,0-16.59-.41c-.45-.24-.91-.45-1.38-.65a10.27,10.27,0,0,1,19.33.32l.72-.24a11,11,0,0,0-20.76-.35,17,17,0,0,0-5.28-1,16.35,16.35,0,0,1,31.34.46l.73-.2c0-.18-.11-.34-.16-.51a16.76,16.76,0,0,1,5.78-8.16h0A6.09,6.09,0,0,0,155,937.3a16.72,16.72,0,0,0-1.65-1.08,8,8,0,0,1,15.18.26l.73-.22a8.75,8.75,0,0,0-16.59-.42,14.35,14.35,0,0,0-1.38-.64,10.27,10.27,0,0,1,19.33.32l.72-.25a11,11,0,0,0-20.76-.35,16.93,16.93,0,0,0-5.28-1,16.35,16.35,0,0,1,31.34.46l.73-.21A17.16,17.16,0,0,0,161.21,921.72Zm-.8,0a16.66,16.66,0,0,0-5.28,1,11,11,0,0,0-20.63,0,16.71,16.71,0,0,0-5.28-1,16.35,16.35,0,0,1,31.19,0Zm-31.71,11a6.09,6.09,0,0,0-5.89,4.56,18.14,18.14,0,0,0-1.66-1.08,8,8,0,0,1,15.1,0,18.14,18.14,0,0,0-1.66,1.08A6.09,6.09,0,0,0,128.7,932.74Zm0-2.66a8.7,8.7,0,0,0-8.22,5.76,14.35,14.35,0,0,0-1.38-.64,10.26,10.26,0,0,1,19.21,0c-.48.19-.94.41-1.39.64A8.7,8.7,0,0,0,128.7,930.08Zm0-2.29a11,11,0,0,0-10.31,7.13,17,17,0,0,0-5.28-1,16.35,16.35,0,0,1,31.19,0,17.3,17.3,0,0,0-5.29,1A11,11,0,0,0,128.7,927.79Zm-7.89-4.14a8.75,8.75,0,0,0-16.44,0c-.45-.23-.91-.44-1.39-.64a10.27,10.27,0,0,1,19.21,0C121.72,923.21,121.26,923.42,120.81,923.65Zm-8.22-5a8,8,0,0,1,7.55,5.38,18.24,18.24,0,0,0-1.66,1.09,6.08,6.08,0,0,0-11.78,0A18.14,18.14,0,0,0,105,924,7.94,7.94,0,0,1,112.59,918.65Zm24.33-7.18a8.74,8.74,0,0,0-16.44,0c-.45-.24-.91-.45-1.38-.65a10.26,10.26,0,0,1,19.21,0A13.48,13.48,0,0,0,136.92,911.47Zm-8.22-5a7.94,7.94,0,0,1,7.55,5.38,18.14,18.14,0,0,0-1.66,1.08,6.08,6.08,0,0,0-11.78,0,16.26,16.26,0,0,0-1.66-1.08A8,8,0,0,1,128.7,906.47Zm16.11,14.08a6.09,6.09,0,0,0-5.89,4.56,18,18,0,0,0-1.65-1.08,8,8,0,0,1,15.09,0,18.24,18.24,0,0,0-1.66,1.09A6.07,6.07,0,0,0,144.81,920.55Zm0-2.66a8.71,8.71,0,0,0-8.22,5.76c-.45-.23-.91-.44-1.38-.64a10.27,10.27,0,0,1,19.21,0c-.47.2-.94.41-1.39.64A8.7,8.7,0,0,0,144.81,917.89ZM128.7,898.1a16.41,16.41,0,0,1,15.6,11.44,17.3,17.3,0,0,0-5.29,1,11,11,0,0,0-20.62,0,17,17,0,0,0-5.28-1A16.41,16.41,0,0,1,128.7,898.1Zm-16.11,12.18a16.4,16.4,0,0,1,15.59,11.45,16.71,16.71,0,0,0-5.28,1,11,11,0,0,0-20.62,0,16.71,16.71,0,0,0-5.28-1A16.42,16.42,0,0,1,112.59,910.28Z"/></svg>